<svg width="596" height="155" viewBox="0 0 596 155" fill="none" xmlns="http://www.w3.org/2000/svg">
<g clip-path="url(#clip0_1264_27)">
<rect x="66.5654" y="127.5" width="26.2627" height="30.3031" transform="rotate(180 66.5654 127.5)" fill="white"/>
<rect x="66.5651" y="97.1973" width="26.2627" height="26.2627" transform="rotate(180 66.5651 97.1973)" fill="white"/>
<rect x="40.3031" y="97.1973" width="30.3031" height="26.2627" transform="rotate(180 40.3031 97.1973)" fill="white"/>
<rect x="110" y="84.0659" width="26.2627" height="30.3031" transform="rotate(180 110 84.0659)" fill="white"/>
<rect x="110" y="53.7627" width="26.2627" height="26.2627" transform="rotate(180 110 53.7627)" fill="white"/>
<rect x="83.7373" y="53.7627" width="30.3031" height="26.2627" transform="rotate(180 83.7373 53.7627)" fill="white"/>
<path d="M200.704 118.268C192.256 118.268 185.685 116.007 180.992 111.484C176.384 106.876 174.08 100.476 174.08 92.284V64.252H162.304V47.612H162.944C166.528 47.612 169.259 46.716 171.136 44.924C173.099 43.132 174.08 40.444 174.08 36.86V31.74H193.28V47.612H209.664V64.252H193.28V91.004C193.28 93.3933 193.707 95.3987 194.56 97.02C195.413 98.556 196.736 99.708 198.528 100.476C200.32 101.244 202.539 101.628 205.184 101.628C205.781 101.628 206.464 101.585 207.232 101.5C208 101.415 208.811 101.329 209.664 101.244V117.5C208.384 117.671 206.933 117.841 205.312 118.012C203.691 118.183 202.155 118.268 200.704 118.268ZM220.915 117.5V47.612H238.835V64.38L237.555 61.948C239.091 56.06 241.608 52.092 245.107 50.044C248.691 47.9107 252.915 46.844 257.779 46.844H261.875V63.484H255.859C251.166 63.484 247.368 64.9347 244.467 67.836C241.566 70.652 240.115 74.6627 240.115 79.868V117.5H220.915ZM304.978 119.036C298.066 119.036 291.751 117.457 286.034 114.3C280.402 111.143 275.879 106.833 272.466 101.372C269.138 95.8253 267.474 89.5533 267.474 82.556C267.474 75.4733 269.138 69.2013 272.466 63.74C275.879 58.2787 280.402 53.9693 286.034 50.812C291.751 47.6547 298.066 46.076 304.978 46.076C311.89 46.076 318.162 47.6547 323.794 50.812C329.426 53.9693 333.906 58.2787 337.234 63.74C340.647 69.2013 342.354 75.4733 342.354 82.556C342.354 89.5533 340.647 95.8253 337.234 101.372C333.906 106.833 329.426 111.143 323.794 114.3C318.162 117.457 311.89 119.036 304.978 119.036ZM304.978 101.756C308.477 101.756 311.506 100.945 314.066 99.324C316.711 97.7027 318.759 95.4413 320.21 92.54C321.746 89.6387 322.514 86.3107 322.514 82.556C322.514 78.8013 321.746 75.516 320.21 72.7C318.759 69.7987 316.711 67.5373 314.066 65.916C311.506 64.2093 308.477 63.356 304.978 63.356C301.479 63.356 298.407 64.2093 295.762 65.916C293.117 67.5373 291.026 69.7987 289.49 72.7C288.039 75.516 287.314 78.8013 287.314 82.556C287.314 86.3107 288.039 89.6387 289.49 92.54C291.026 95.4413 293.117 97.7027 295.762 99.324C298.407 100.945 301.479 101.756 304.978 101.756ZM353.665 143.1V47.612H371.585V60.924L369.921 57.084C372.225 53.5853 375.34 50.8973 379.265 49.02C383.276 47.0573 387.841 46.076 392.961 46.076C399.617 46.076 405.633 47.6973 411.009 50.94C416.385 54.1827 420.652 58.5773 423.809 64.124C426.966 69.5853 428.545 75.7293 428.545 82.556C428.545 89.2973 426.966 95.4413 423.809 100.988C420.737 106.535 416.513 110.929 411.137 114.172C405.761 117.415 399.66 119.036 392.833 119.036C388.054 119.036 383.617 118.183 379.521 116.476C375.51 114.684 372.268 112.081 369.793 108.668L372.865 104.7V143.1H353.665ZM390.529 101.756C394.113 101.756 397.27 100.945 400.001 99.324C402.732 97.7027 404.865 95.4413 406.401 92.54C407.937 89.6387 408.705 86.3107 408.705 82.556C408.705 78.8013 407.937 75.516 406.401 72.7C404.865 69.7987 402.732 67.5373 400.001 65.916C397.27 64.2093 394.113 63.356 390.529 63.356C387.116 63.356 384.044 64.1667 381.313 65.788C378.668 67.4093 376.577 69.6707 375.041 72.572C373.59 75.4733 372.865 78.8013 372.865 82.556C372.865 86.3107 373.59 89.6387 375.041 92.54C376.577 95.4413 378.668 97.7027 381.313 99.324C384.044 100.945 387.116 101.756 390.529 101.756ZM439.79 117.5V20.604H458.99V61.436L456.686 58.364C458.307 54.1827 460.91 51.1107 464.494 49.148C468.163 47.1 472.43 46.076 477.294 46.076C482.585 46.076 487.193 47.1853 491.118 49.404C495.129 51.6227 498.243 54.7373 500.462 58.748C502.681 62.6733 503.79 67.2813 503.79 72.572V117.5H484.59V76.668C484.59 73.9373 484.035 71.5907 482.926 69.628C481.902 67.6653 480.409 66.1293 478.446 65.02C476.569 63.9107 474.35 63.356 471.79 63.356C469.315 63.356 467.097 63.9107 465.134 65.02C463.171 66.1293 461.635 67.6653 460.526 69.628C459.502 71.5907 458.99 73.9373 458.99 76.668V117.5H439.79ZM526.045 145.66C523.997 145.66 521.992 145.489 520.029 145.148C518.152 144.807 516.488 144.252 515.037 143.484V127.74C516.232 128.081 517.64 128.38 519.261 128.636C520.882 128.892 522.376 129.02 523.741 129.02C527.496 129.02 530.184 128.124 531.805 126.332C533.426 124.625 534.749 122.663 535.773 120.444L540.509 109.564L540.253 125.564L509.533 47.612H530.141L550.493 103.036H542.813L563.165 47.612H583.773L553.821 124.028C551.944 128.807 549.64 132.817 546.909 136.06C544.178 139.303 541.064 141.692 537.565 143.228C534.152 144.849 530.312 145.66 526.045 145.66Z" fill="white"/>
</g>
<defs>
<clipPath id="clip0_1264_27">
<rect width="596" height="155" fill="white"/>
</clipPath>
</defs>
</svg>
